<?xml version="1.0"?><svg width="468" height="468" xmlns="http://www.w3.org/2000/svg">
 <g>
  <title>Layer 1</title>
  <path fill="#f94848" stroke="#7f3f00" stroke-width="2.928799" id="path572" d="m299.968903,161.237c15.566406,-46.699303 -20.609802,-107.767639 -31.132996,-108.965111c-15.566406,15.566429 -15.566406,15.566429 -31.132813,31.132881c-15.566498,-15.566452 -15.566498,-15.566452 -31.132996,-31.132881c-8.519897,6.262421 -46.699402,62.265808 -31.132904,112.04731c-39.603394,-26.153305 -108.861923,-15.441101 -113.252605,-5.802994c9.994312,19.614899 9.994312,19.614899 19.988483,39.229691c-19.614841,9.9944 -19.614841,9.9944 -39.229702,19.988708c3.32312,10.038101 45.910526,62.118881 95.134327,67.971786c-40.042717,34.8573 -47.79364,96.407318 -39.984024,103.56131c21.743225,-3.443787 21.743225,-3.443787 43.48642,-6.887604c3.443909,21.743317 3.443909,21.743317 6.887711,43.486511c10.5737,-0.058502 71.794693,-33.432007 89.235199,-71.667816c17.440491,55.624695 80.018005,76.265594 89.235199,71.048798c3.443787,-21.743195 3.443787,-21.743195 6.887787,-43.486298c21.743103,3.443695 21.743103,3.443695 43.200806,6.280609c2.926208,-10.681396 2.169312,-75.928802 -31.646881,-111.908691c55.450592,-6.975616 89.195984,-49.087204 87.082977,-59.465408c-19.614899,-9.9944 -19.614899,-9.9944 -39.229797,-19.988602c9.994202,-19.615005 9.994202,-19.615005 19.988617,-39.229904c-8.588806,-6.167801 -73.649597,-25.172501 -113.252808,4.062912"/>
  <path fill="#ffbfbf" stroke="#7f3f00" stroke-width="1.4644" id="path566" d="m289.599091,174.222504c12.972015,-38.916107 -17.174896,-89.806374 -25.944092,-90.804276c-12.972092,12.972038 -12.972092,12.972038 -25.944092,25.944069c-12.972107,-12.972031 -12.972107,-12.972031 -25.944107,-25.944069c-7.100006,5.218689 -38.916199,51.888168 -25.944199,93.372772c-33.002808,-21.794403 -90.718193,-12.867508 -94.377083,-4.8358c8.32859,16.345703 8.32859,16.345703 16.657082,32.691406c-16.345718,8.328598 -16.345718,8.328598 -32.691429,16.657196c2.769272,8.365097 38.258728,51.765808 79.278633,56.643188c-33.369003,29.047699 -39.828102,80.339294 -33.320007,86.301117c18.119308,-2.869904 18.119308,-2.869904 36.238602,-5.739716c2.869904,18.119507 2.869904,18.119507 5.739807,36.2388c8.811401,-0.048798 59.828888,-27.860107 74.362701,-59.723206c14.533691,46.353912 66.68158,63.554626 74.362579,59.207428c2.869904,-18.119415 2.869904,-18.119415 5.739807,-36.238708c18.119293,2.869781 18.119293,2.869781 36.000702,5.233795c2.438507,-8.901093 1.8078,-63.273895 -26.372284,-93.257202c46.208679,-5.812988 74.329895,-40.906006 72.569,-49.554398c-16.345703,-8.328705 -16.345703,-8.328705 -32.691406,-16.657303c8.328491,-16.345795 8.328491,-16.345795 16.657104,-32.691498c-7.157318,-5.139908 -61.374603,-20.977097 -94.377319,3.385696"/>
  <path fill="#ffffaa" fill-rule="evenodd" id="path569" d="m325.85611,265.197693l-84.089417,-15.89299l-4.445389,83.044998l-4.215912,-82.782104l-77.572189,26.007813l74.634903,-33.821106l-44.793411,-69.955307l51.639313,64.86351l52.824982,-64.86351l-45.656586,69.529999l81.673706,23.868698z"/>
  <path fill="#ffffaa" fill-rule="evenodd" id="path570" d="m180.569199,229.482498l54.3535,10.272903l2.873398,-53.678497l2.725098,53.508591l50.140915,-16.810898l-48.24231,21.861298l28.9534,45.217407l-33.378403,-41.9263l-34.144897,41.9263l29.511398,-44.942596l-52.792099,-15.428207z"/>
  <path fill="#ffffaa" fill-rule="evenodd" stroke="#f73b3b" stroke-width="7.941" id="path567" d="m263.694,239.149994a25.944099,25.944099 0 1 1 -51.888,0a25.944099,25.944099 0 1 1 51.888,0z"/>
  <path fill="#ffffaa" fill-rule="evenodd" stroke-width="1.0000000pt" id="path571" d="m196.395172,231.600159a7.912951,7.912944 0 1 1 -15.825897,0a7.912951,7.912944 0 1 1 15.825897,0z"/>
  <path fill="#ffffaa" fill-rule="evenodd" stroke-width="1.0000000pt" id="path573" d="m244.720261,186.569962a7.912951,7.912944 0 1 1 -15.825897,0a7.912951,7.912944 0 1 1 15.825897,0z"/>
  <path fill="#ffffaa" fill-rule="evenodd" stroke-width="1.0000000pt" id="path575" d="m297.43869,221.715469a7.912951,7.912944 0 1 1 -15.825897,0a7.912951,7.912944 0 1 1 15.825897,0z"/>
  <path fill="#ffffaa" fill-rule="evenodd" stroke-width="1.0000000pt" id="path576" d="m217.262772,281.023682a7.912951,7.912944 0 1 1 -15.825897,0a7.912951,7.912944 0 1 1 15.825897,0z"/>
  <path fill="#ffffaa" fill-rule="evenodd" stroke-width="1.0000000pt" id="path577" d="m278.767578,285.41687a7.912951,7.912944 0 1 1 -15.825897,0a7.912951,7.912944 0 1 1 15.825897,0z"/>
 </g>
</svg>